<svg xmlns="http://www.w3.org/2000/svg" viewBox="0 0 203.968 203.968"><g fill="#384aeb"><path d="M79.125 173.622a7.5 7.5 0 007.5-7.5V90.799a7.5 7.5 0 00-15 0v75.323a7.5 7.5 0 007.5 7.5zm22.859 0a7.5 7.5 0 007.5-7.5V90.799a7.5 7.5 0 00-15 0v75.323a7.5 7.5 0 007.5 7.5zm22.859 0a7.5 7.5 0 007.5-7.5V90.799a7.5 7.5 0 00-15 0v75.323a7.5 7.5 0 007.5 7.5z"/><path d="M162.881 52.765h-.468V42.032c0-11.908-9.688-21.595-21.596-21.595h-4.006v-2.431C136.811 8.078 128.734 0 118.805 0H85.163c-9.929 0-18.006 8.078-18.006 18.006v2.431h-4.006c-11.908 0-21.596 9.688-21.596 21.595v10.733h-.468a7.5 7.5 0 000 15h.468v114.607c0 11.908 9.688 21.595 21.596 21.595h77.666c11.908 0 21.596-9.688 21.596-21.595V67.765h.468a7.5 7.5 0 000-15zM82.157 18.006A3.01 3.01 0 0185.163 15h33.642a3.01 3.01 0 013.006 3.006v2.431H82.157v-2.431zM56.555 42.032a6.603 6.603 0 016.596-6.595h77.666a6.603 6.603 0 016.596 6.595v10.733H56.555V42.032zm90.857 140.341a6.603 6.603 0 01-6.596 6.595H63.151a6.603 6.603 0 01-6.596-6.595V67.765h90.857v114.608z"/></g></svg>